{"title":"2 Guns 2013 DVD-R (RLG)","uid":9324703,"size":4696432640,"categoryP":"video","categoryS":"movies_dvdr","magnet":"?xt=urn:btih:a8b73622835299212943aaf45763769bf3ae806f&amp;dn=2+Guns+2013+DVD-R+%28RLG%29&amp;tr=udp%3A%2F%2Ftracker.openbittorrent.com%3A80&amp;tr=udp%3A%2F%2Fopen.demonii.com%3A1337&amp;tr=udp%3A%2F%2Ftracker.coppersurfer.tk%3A6969&amp;tr=udp%3A%2F%2Fexodus.desync.com%3A6969","seeders":0,"leechers":1,"uploader":"RedLegsGreaves","files":-1,"time":1386613587,"description":" &lt;a href=&quot;http://www.imdb.com/title/tt1272878/&quot; rel=&quot;nofollow&quot; target=&quot;_NEW&quot;&gt;http://www.imdb.com/title/tt1272878/&lt;/a&gt;\nA DEA agent and a naval intelligence officer find themselves on the run after a botched attempt to infiltrate a drug cartel. While fleeing, they learn the secret of their shaky alliance: Neither knew that the other was an undercover agent.\n\nLanguage: English\nSubtitles: English, French, Spanish (Latin America)\n\nFor Newer Users.\nSimply Drag downloaded folder to your Media Player. This is a NTSC DVD.\nThis is ripped so you would have best quality, menu, bonus/special feature, language options etc. \n(may or may not have all features)\n\n\nVideo\nID : 224 (0xE0)\nFormat : MPEG Video\nFormat version : Version 2\nFormat profile : Main@Main\nFormat settings, BVOP : Yes\nFormat settings, Matrix : Custom\nFormat settings, GOP : Variable\nDuration : 24mn 31s\nBit rate mode : Variable\nBit rate : 5 274 Kbps\nMaximum bit rate : 8 215 Kbps\nWidth : 720 pixels\nHeight : 480 pixels\nDisplay aspect ratio : 16:9\nFrame rate : 29.970 fps\nStandard : NTSC\nColor space : YUV\nChroma subsampling : 4:2:0\nBit depth : 8 bits\nCompression mode : Lossy\nBits/(Pixel*Frame) : 0.509\nTime code of first frame : 00:06:04:16\nTime code source : Group of pictures header\nStream size : 925 MiB (90%)\n\nAudio\nID : 189 (0xBD)-128 (0x80)\nFormat : AC-3\nFormat/Info : Audio Coding 3\nMode extension : CM (complete main)\nFormat settings, Endianness : Big\nMuxing mode : DVD-Video\nDuration : 24mn 31s\nBit rate mode : Constant\nBit rate : 448 Kbps\nChannel count : 6 channels\nChannel positions : Front: L C R, Side: L R, LFE\nSampling rate : 48.0 KHz\nBit depth : 16 bits\nCompression mode : Lossy\nStream size : 78.6 MiB (8%)\n","torrent":{"xt":"urn:btih:a8b73622835299212943aaf45763769bf3ae806f","amp;dn":"2+Guns+2013+DVD-R+%28RLG%29","amp;tr":["udp%3A%2F%2Ftracker.openbittorrent.com%3A80","udp%3A%2F%2Fopen.demonii.com%3A1337","udp%3A%2F%2Ftracker.coppersurfer.tk%3A6969","udp%3A%2F%2Fexodus.desync.com%3A6969"],"infoHash":"a8b73622835299212943aaf45763769bf3ae806f","infoHashBuffer":{"type":"Buffer","data":[168,183,54,34,131,82,153,33,41,67,170,244,87,99,118,155,243,174,128,111]},"announce":[],"urlList":[]}}